<svg xmlns="http://www.w3.org/2000/svg" xmlns:xlink="http://www.w3.org/1999/xlink" width="22" height="22" viewBox="0 0 22 22">
    <defs>
        <path id="jltzcu514a" d="M0 0L22 0 22 22 0 22z"/>
    </defs>
    <g fill="none" fill-rule="evenodd">
        <g>
            <g>
                <g>
                    <g>
                        <g transform="translate(-409 -146) translate(75 14) translate(19 132) translate(315)">
                            <mask id="3qi8o20z6b" fill="#fff">
                                <use xlink:href="#jltzcu514a"/>
                            </mask>
                            <path fill="#FFF" stroke="#979797" d="M11 1.222c5.4 0 9.778 4.378 9.778 9.778S16.4 20.778 11 20.778 1.222 16.4 1.222 11 5.6 1.222 11 1.222" mask="url(#3qi8o20z6b)"/>
                        </g>
                        <path fill="#999" d="M13.015 7.778c-.286.193-.628.289-1.025.289-.414 0-.764-.096-1.05-.289-.286-.192-.429-.422-.429-.69 0-.266.143-.496.43-.689.285-.192.635-.288 1.049-.288.397 0 .739.096 1.025.288.286.193.43.423.43.69 0 .267-.144.497-.43.69zm-.548 6.163c-.11.276-.262.532-.454.767-.193.236-.407.44-.643.612-.237.172-.49.31-.76.414-.27.103-.536.155-.8.155-.539 0-.913-.184-1.122-.552-.21-.367-.17-.913.115-1.637.055-.138.14-.348.256-.63.115-.281.234-.577.355-.888.12-.31.234-.603.338-.879.105-.276.184-.477.24-.603.087-.23.099-.417.033-.56-.067-.144-.226-.216-.48-.216h-.164l.346-.742.28-.069c.09-.022.185-.04.29-.051.104-.012.211-.018.322-.018.627 0 1.017.181 1.171.544.154.361.083.922-.214 1.68l-.272.707c-.116.3-.234.598-.356.897-.131.345-.269.701-.412 1.069-.088.23-.077.391.033.483.11.092.261.118.454.077.192-.04.399-.146.619-.319.22-.172.401-.413.544-.724l.28.483z" transform="translate(-409 -146) translate(75 14) translate(19 132) translate(315)"/>
                    </g>
                </g>
            </g>
        </g>
    </g>
</svg>
