<svg xmlns="http://www.w3.org/2000/svg" xmlns:xlink="http://www.w3.org/1999/xlink" width="21" height="21" viewBox="0 0 21 21">
    <defs>
        <filter id="0h3rcmti9a">
            <feColorMatrix in="SourceGraphic" values="0 0 0 0 1.000000 0 0 0 0 0.325490 0 0 0 0 0.329412 0 0 0 1.000000 0"/>
        </filter>
        <path id="wdfqov3etb" d="M0 0L21 0 21 21 0 21z"/>
    </defs>
    <g fill="none" fill-rule="evenodd">
        <g>
            <g>
                <g filter="url(#0h3rcmti9a)" transform="translate(-107 -44) translate(75 14) translate(20 18)">
                    <g transform="translate(12 12)">
                        <mask id="8qtt5x7nbc" fill="#fff">
                            <use xlink:href="#wdfqov3etb"/>
                        </mask>
                        <path fill="#000" d="M4.214 14.513C2.838 13.137 2.08 11.31 2.08 9.363c0-1.945.757-3.773 2.133-5.15C5.59 2.839 7.418 2.082 9.363 2.082c1.945 0 3.773.757 5.15 2.133 1.375 1.376 2.132 3.204 2.132 5.15 0 1.945-.757 3.773-2.133 5.15-2.84 2.839-7.459 2.839-10.298 0m16.481 4.71l-4.02-4.02c1.327-1.653 2.05-3.69 2.05-5.84 0-2.502-.973-4.853-2.742-6.621C14.215.973 11.863 0 9.363 0S4.51.974 2.743 2.743C.973 4.51 0 6.863 0 9.363c0 2.501.974 4.853 2.743 6.621 1.826 1.826 4.222 2.739 6.62 2.739 2.07 0 4.14-.686 5.842-2.047l4.019 4.02c.203.202.47.304.735.304.267 0 .533-.102.736-.305.407-.406.407-1.065 0-1.471" mask="url(#8qtt5x7nbc)"/>
                    </g>
                </g>
            </g>
        </g>
    </g>
</svg>
