<svg xmlns="http://www.w3.org/2000/svg" width="234" height="231" viewBox="0 0 234 231">
    <g fill="none" fill-rule="evenodd">
        <g>
            <g transform="translate(-842 -224) translate(842.5 224)">
                <ellipse cx="116.5" cy="115.5" fill="#F0F0F0" rx="116" ry="115.5"/>
                <g>
                    <path stroke="#C11830" stroke-dasharray="3 3" stroke-width="3" d="M40.688 66.11c-6.73-7.619-10.533-17.785-9.811-28.695.722-10.91 5.83-20.496 13.506-27.176S62.303-.214 73.295.502c10.991.716 20.65 5.787 27.382 13.405 6.73 7.619 10.532 17.786 9.81 28.696-.722 10.909-5.83 20.495-13.507 27.175" transform="translate(47.5 54)"/>
                    <path stroke="#333" stroke-width="2" d="M135.459 122.21H3.427c-.288 0-.534-.202-.588-.482l-2.826-9.372c-.082-.42.242-.81.674-.81h59.529l3.074 3.053h12.304l3.074-3.053h59.53c.431 0 .756.39.674.81l-2.825 9.372c-.054.28-.3.482-.588.482zM19.965 39.547H8.346c-.513 0-.928.413-.928.922v63.946M131.468 104.415V40.47c0-.51-.416-.922-.929-.922h-12.367M21.583 100.034L118.173 100.034 118.173 65.128" transform="translate(47.5 54)"/>
                    <path fill="#C11830" d="M71.046 48.553c-5.679 0-10.283-4.57-10.283-10.206 0-5.636 4.604-10.206 10.283-10.206 5.678 0 10.282 4.57 10.282 10.206 0 5.636-4.604 10.206-10.282 10.206m.018-38.797C54.581 9.756 41.22 23.02 41.22 39.38c0 16.264 29.827 45.835 29.827 45.835s29.826-29.571 29.826-45.835h.038c0-16.36-13.362-29.623-29.846-29.623" transform="translate(47.5 54)"/>
                    <path fill="#FFF" d="M89.028 38.21c0 9.846-8.042 17.828-17.963 17.828-9.922 0-17.964-7.982-17.964-17.829 0-9.847 8.042-17.83 17.964-17.83 9.92 0 17.963 7.983 17.963 17.83" transform="translate(47.5 54)"/>
                    <path stroke="#C11830" stroke-linecap="round" stroke-linejoin="round" stroke-width="3" d="M77.747 31.576L64.382 44.841M77.747 44.842L64.382 31.577" transform="translate(47.5 54)"/>
                </g>
            </g>
        </g>
    </g>
</svg>
