<svg xmlns="http://www.w3.org/2000/svg" width="28" height="23" viewBox="0 0 28 23">
    <defs>
        <filter id="d13hpwx20a">
            <feColorMatrix in="SourceGraphic" values="0 0 0 0 1.000000 0 0 0 0 1.000000 0 0 0 0 1.000000 0 0 0 1.000000 0"/>
        </filter>
    </defs>
    <g fill="none" fill-rule="evenodd" stroke-linejoin="round">
        <g>
            <g filter="url(#d13hpwx20a)" transform="translate(-16 -358) translate(0 22)">
                <g stroke="#000" stroke-width="1.65">
                    <path d="M24.087 19.058l1.1-1.905-1.1-.637c.151-.633.151-1.14 0-1.774l1.1-.634-1.1-1.905-1.1.634c-.43-.406-.956-.705-1.536-.88V10.68h-2.2v1.278c-.582.174-1.108.473-1.538.879l-1.1-.634-1.1 1.905 1.1.634c-.15.633-.15 1.14 0 1.774l-1.1.637 1.1 1.905 1.1-.636c.43.406.956.704 1.538.88v1.278h2.2V19.3c.58-.175 1.105-.473 1.536-.879l1.1.636z" transform="translate(17 337)"/>
                    <path d="M22 15.63c0 .91-.74 1.65-1.65 1.65-.91 0-1.65-.74-1.65-1.65 0-.911.74-1.65 1.65-1.65.91 0 1.65.739 1.65 1.65z" transform="translate(17 337)"/>
                    <path stroke-linecap="round" d="M13.606 13.437L11 12.503 11 10.254M6.6 10.254v2.25l-4.335 1.553C1.226 14.43.55 15.412.55 16.512v1.638h12.741" transform="translate(17 337)"/>
                    <path stroke-linecap="round" d="M13.142 5.76c0 2.879-1.945 5.214-4.342 5.214-2.399 0-4.342-2.335-4.342-5.214C4.458 2.883 6.4.55 8.8.55c2.397 0 4.342 2.333 4.342 5.21z" transform="translate(17 337)"/>
                </g>
            </g>
        </g>
    </g>
</svg>
