<svg xmlns="http://www.w3.org/2000/svg" width="20" height="20" viewBox="0 0 20 20">
    <g fill="none" fill-rule="evenodd">
        <g fill="#FFF">
            <g>
                <path d="M30 63.91c0-.503.407-.91.91-.91 5.02 0 9.09 4.07 9.09 9.09 0 .503-.407.91-.91.91h-.953c.03.3.045.603.045.91 0 5.02-4.07 9.09-9.091 9.09C24.07 83 20 78.93 20 73.91c0-5.022 4.07-9.092 9.09-9.092.307 0 .61.016.91.045v-.954zm0 2.783c-.297-.038-.6-.057-.91-.057-4.015 0-7.272 3.257-7.272 7.273s3.257 7.273 7.273 7.273 7.273-3.257 7.273-7.273c0-.308-.02-.612-.057-.909H30.91c-.502 0-.909-.407-.909-.91v-5.397zm1.818-1.818v6.307h6.307c-.41-3.29-3.017-5.897-6.307-6.307z" transform="translate(-20 -85) translate(0 22)"/>
            </g>
        </g>
    </g>
</svg>
