<svg xmlns="http://www.w3.org/2000/svg" xmlns:xlink="http://www.w3.org/1999/xlink" width="17" height="22" viewBox="0 0 17 22">
    <defs>
        <filter id="epc3zwgbka">
            <feColorMatrix in="SourceGraphic" values="0 0 0 0 1.000000 0 0 0 0 1.000000 0 0 0 0 1.000000 0 0 0 1.000000 0"/>
        </filter>
        <path id="in6b97776b" d="M0 0L16.517 0 16.517 21.375 0 21.375z"/>
    </defs>
    <g fill="none" fill-rule="evenodd">
        <g>
            <g filter="url(#epc3zwgbka)" transform="translate(-22 -139) translate(0 22)">
                <g transform="translate(22 117)">
                    <mask id="eeymaevxsc" fill="#fff">
                        <use xlink:href="#in6b97776b"/>
                    </mask>
                    <path fill="#000" d="M11.58 12.458c.157.158.247.377.247.603 0 .223-.09.442-.248.6-.158.158-.379.248-.602.248-.224 0-.442-.09-.6-.248-.16-.158-.25-.377-.25-.6 0-.226.09-.445.25-.603.316-.315.886-.315 1.202 0zM4.377 5.465c0-.47.38-.85.85-.85h5.782c.47 0 .85.38.85.85s-.38.85-.85.85H5.228c-.47 0-.85-.38-.85-.85zm0 3.644c0-.47.38-.85.85-.85h5.782c.47 0 .85.38.85.85s-.38.85-.85.85H5.228c-.47 0-.85-.38-.85-.85zm-.135 3.886c0-.47.38-.85.85-.85h2.872c.47 0 .85.38.85.85s-.38.85-.85.85H5.093c-.47 0-.85-.38-.85-.85zm-2.3 6.437h12.631V1.943H1.944v17.49zM16.517.972c0-.537-.435-.972-.971-.972H.972C.435 0 0 .435 0 .972v19.432c0 .536.435.971.972.971h14.574c.536 0 .971-.435.971-.971V.972z" mask="url(#eeymaevxsc)"/>
                </g>
            </g>
        </g>
    </g>
</svg>
