<svg xmlns="http://www.w3.org/2000/svg" width="21" height="21" viewBox="0 0 21 21">
    <g fill="none" fill-rule="evenodd" stroke-linecap="round" stroke-linejoin="round">
        <g stroke="#FFF">
            <g>
                <g>
                    <path stroke-width="1.65" d="M15.549 5.628c-.205-.367-.438-.715-.698-1.04l.835-1.935c.136-.33.015-.716-.284-.897l-2.73-1.66c-.303-.183-.69-.098-.896.197l-1.21 1.719c-.804-.145-1.627-.145-2.433 0L6.945.293c-.206-.295-.592-.38-.896-.197L3.307 1.747c-.299.181-.42.566-.285.897l.832 1.93c-.522.653-.933 1.396-1.214 2.194l-2.025.215c-.349.037-.614.343-.615.71v3.301c-.006.372.261.686.615.723l2.025.215c.28.799.69 1.541 1.214 2.194l-.832 1.93c-.136.33-.014.715.285.897l2.742 1.651c.304.183.69.098.896-.197l1.193-1.719c.805.145 1.628.145 2.433 0l1.188 1.714c.207.295.592.38.896.198l2.742-1.651c.3-.182.421-.567.285-.898l-.831-1.93c.522-.653.933-1.395 1.214-2.193l2.024-.216c.346-.038.609-.342.611-.704V7.706c0-.367-.266-.673-.615-.71l-2.024-.215c-.14-.399-.31-.784-.512-1.153z" transform="translate(-20 -304) translate(0 22) translate(21 283)"/>
                    <path stroke-width="1.489" d="M9.35 5.5c2.127 0 3.85 1.724 3.85 3.85 0 2.126-1.723 3.85-3.85 3.85-2.126 0-3.85-1.724-3.85-3.85 0-2.126 1.724-3.85 3.85-3.85z" transform="translate(-20 -304) translate(0 22) translate(21 283)"/>
                </g>
            </g>
        </g>
    </g>
</svg>
