<svg xmlns="http://www.w3.org/2000/svg" xmlns:xlink="http://www.w3.org/1999/xlink" width="75" height="21" viewBox="0 0 75 21">
    <defs>
        <filter id="bheycc0wla">
            <feColorMatrix in="SourceGraphic" values="0 0 0 0 1.000000 0 0 0 0 1.000000 0 0 0 0 1.000000 0 0 0 1.000000 0"/>
        </filter>
        <path id="uhrch3m25b" d="M0.132 0.134L14.107 0.134 14.107 19.52 0.132 19.52z"/>
    </defs>
    <g fill="none" fill-rule="evenodd">
        <g>
            <g>
                <g filter="url(#bheycc0wla)" transform="translate(-60 -22) translate(0 22) translate(60)">
                    <g>
                        <path fill="#F03223" d="M15.56.054L10.603 13.266 5.54.054 0 .054 0 19.02 4.533 19.02 4.533 7.132 8.589 19.02 12.512 19.02 16.541 7.16 16.541 19.02 21.074 19.02 21.074.054zM30.052.054l-6.87 18.966h4.774l1.168-3.485h7.03l1.167 3.485h4.827L35.278.054h-5.226zm2.6 4.944l2.334 7.025h-4.695l2.36-7.025z" transform="translate(0 1.055)"/>
                        <g>
                            <path fill="#F03223" d="M10.33 13.53c0-.677-.221-1.207-.661-1.59-.44-.384-1.066-.576-1.876-.576H4.596v4.252H7.82c1.673 0 2.51-.695 2.51-2.086zM4.595 8.155h2.96c1.567 0 2.35-.677 2.35-2.031 0-1.355-.801-2.033-2.404-2.033H4.596v4.064zm9.366 3.102c.66.839.99 1.81.99 2.915 0 1.622-.533 2.888-1.598 3.797-1.066.91-2.593 1.364-4.584 1.364H.08V.428h8.48c1.902 0 3.372.419 4.412 1.256 1.039.839 1.559 2.033 1.559 3.584 0 1.14-.3 2.09-.899 2.847-.599.758-1.382 1.253-2.35 1.485 1.126.267 2.02.82 2.68 1.657z" transform="translate(0 1.055) translate(44.256 .1)"/>
                            <g transform="translate(0 1.055) translate(44.256 .1) translate(16.643)">
                                <mask id="zapy4yzelc" fill="#fff">
                                    <use xlink:href="#uhrch3m25b"/>
                                </mask>
                                <path fill="#F03223" d="M13.354 16.766c-.502.838-1.242 1.506-2.22 2.005-.977.5-2.161.749-3.552.749-2.097 0-3.822-.517-5.178-1.55C1.048 16.934.308 15.49.184 13.636h4.809c.07.713.32 1.275.753 1.685.431.41.981.615 1.65.615.582 0 1.04-.16 1.375-.481.334-.322.501-.75.501-1.284 0-.481-.154-.882-.462-1.203-.308-.321-.691-.584-1.149-.789-.458-.205-1.092-.45-1.902-.735-1.18-.41-2.144-.807-2.893-1.19C2.117 9.871 1.475 9.3.938 8.542.4 7.786.132 6.801.132 5.59c0-1.123.282-2.095.845-2.915.564-.82 1.343-1.448 2.338-1.885C4.31.352 5.451.134 6.736.134c2.078 0 3.73.499 4.954 1.497 1.224.999 1.915 2.371 2.073 4.118H8.876c-.088-.624-.313-1.118-.673-1.484-.362-.365-.85-.548-1.467-.548-.528 0-.955.143-1.28.428-.327.285-.49.704-.49 1.256 0 .446.146.825.436 1.137.29.312.656.566 1.097.762.44.196 1.074.446 1.902.748 1.197.411 2.175.816 2.932 1.217.757.401 1.409.985 1.955 1.752.545.766.819 1.765.819 2.994 0 1-.251 1.917-.753 2.755" mask="url(#zapy4yzelc)"/>
                            </g>
                        </g>
                    </g>
                </g>
            </g>
        </g>
    </g>
</svg>
