<svg xmlns="http://www.w3.org/2000/svg" xmlns:xlink="http://www.w3.org/1999/xlink" width="150" height="42" viewBox="0 0 150 42">
    <defs>
        <filter id="e5qy8sskga">
            <feColorMatrix in="SourceGraphic" values="0 0 0 0 1.000000 0 0 0 0 0.325490 0 0 0 0 0.329412 0 0 0 1.000000 0"/>
        </filter>
        <path id="eoccrdox3b" d="M0.264 0.268L28.214 0.268 28.214 39.04 0.264 39.04z"/>
    </defs>
    <g fill="none" fill-rule="evenodd">
        <g>
            <g>
                <g filter="url(#e5qy8sskga)" transform="translate(-888 -345) translate(719 287) translate(169 58)">
                    <g>
                        <path fill="#F03223" d="M31.121.107L21.207 26.532 11.081.107 0 .107 0 38.041 9.066 38.041 9.066 14.265 17.177 38.041 25.024 38.041 33.082 14.32 33.082 38.041 42.148 38.041 42.148.107zM60.104.107l-13.74 37.934h9.549l2.334-6.971h14.06l2.334 6.97h9.656L70.557.108H60.103zm5.2 9.89l4.668 14.049h-9.39l4.722-14.05z" transform="translate(0 2.108)"/>
                        <g>
                            <path fill="#F03223" d="M20.658 27.06c0-1.354-.44-2.415-1.32-3.181-.881-.767-2.133-1.15-3.752-1.15H9.193v8.503h6.446c3.346 0 5.02-1.39 5.02-4.172zM9.193 16.311h5.917c3.135 0 4.703-1.355 4.703-4.064 0-2.71-1.604-4.065-4.808-4.065H9.193v8.129zm18.73 6.204c1.321 1.676 1.981 3.62 1.981 5.829 0 3.245-1.066 5.776-3.196 7.594-2.132 1.818-5.187 2.727-9.167 2.727H.158V.855h16.96c3.804 0 6.745.838 8.824 2.514 2.078 1.677 3.117 4.065 3.117 7.167 0 2.281-.6 4.18-1.796 5.695-1.199 1.516-2.766 2.505-4.703 2.968 2.254.535 4.042 1.64 5.363 3.316z" transform="translate(0 2.108) translate(88.511 .2)"/>
                            <g transform="translate(0 2.108) translate(88.511 .2) translate(33.286)">
                                <mask id="wyb21empuc" fill="#fff">
                                    <use xlink:href="#eoccrdox3b"/>
                                </mask>
                                <path fill="#F03223" d="M26.708 33.532c-1.004 1.676-2.483 3.013-4.438 4.01-1.955.999-4.324 1.498-7.107 1.498-4.192 0-7.643-1.034-10.355-3.102C2.095 33.871.616 30.983.369 27.275h9.617c.14 1.426.641 2.548 1.505 3.369.863.82 1.964 1.23 3.303 1.23 1.162 0 2.078-.321 2.747-.963.669-.642 1.004-1.497 1.004-2.567 0-.962-.31-1.765-.925-2.406-.616-.642-1.382-1.168-2.298-1.578-.917-.41-2.185-.9-3.804-1.47-2.36-.82-4.289-1.614-5.786-2.381-1.498-.766-2.783-1.907-3.857-3.422C.8 15.572.264 13.602.264 11.177c0-2.246.563-4.189 1.69-5.829 1.128-1.64 2.686-2.896 4.676-3.77C8.62.704 10.901.268 13.473.268c4.155 0 7.457.998 9.906 2.994 2.448 1.997 3.83 4.742 4.148 8.236h-9.775c-.177-1.248-.625-2.237-1.347-2.968-.722-.73-1.7-1.096-2.932-1.096-1.057 0-1.911.285-2.563.855-.652.571-.977 1.41-.977 2.514 0 .891.29 1.65.871 2.273.582.624 1.312 1.132 2.193 1.524.88.392 2.148.891 3.804 1.497 2.395.821 4.35 1.631 5.865 2.434 1.514.802 2.818 1.97 3.91 3.503 1.09 1.533 1.638 3.53 1.638 5.989 0 1.997-.502 3.833-1.506 5.509" mask="url(#wyb21empuc)"/>
                            </g>
                        </g>
                    </g>
                </g>
            </g>
        </g>
    </g>
</svg>
